<svg xmlns="http://www.w3.org/2000/svg" width="300" height="300" viewBox="0 0 300 300" role="img" aria-labelledby="title desc">
  <title id="title">Reinos Mágicos</title>
  <desc id="desc">Ilustración de un castillo entre montañas.</desc>
  <defs>
    <linearGradient id="sky" x1="0" y1="0" x2="0" y2="1">
      <stop offset="0" stop-color="#34235e"/>
      <stop offset="1" stop-color="#cf77aa"/>
    </linearGradient>
  </defs>
  <rect width="300" height="300" rx="18" fill="url(#sky)"/>
  <circle cx="225" cy="69" r="35" fill="#ffe8a6"/>
  <path d="m0 184 72-86 49 62 44-78 87 102Z" fill="#51436f"/>
  <path d="m0 194 75-55 43 34 48-47 78 68Z" fill="#2d4854"/>
  <path d="M0 190h300v110H0Z" fill="#24453f"/>
  <g fill="#d6c3a0" stroke="#654867" stroke-width="4">
    <path d="M99 198v-70h29v70Z"/><path d="M172 198v-82h31v82Z"/>
    <path d="M123 198v-53h55v53Z"/>
    <path d="m94 130 20-25 19 25Z"/><path d="m166 118 21-29 21 29Z"/>
  </g>
  <path d="M145 198v-25c0-11 14-11 14 0v25Z" fill="#47354e"/>
  <g fill="#ffe792">
    <rect x="107" y="145" width="9" height="15"/><rect x="184" y="134" width="9" height="15"/>
  </g>
  <text x="150" y="244" fill="#fff" font-family="Arial, sans-serif" font-size="24" font-weight="700" text-anchor="middle">REINOS</text>
  <text x="150" y="270" fill="#ffe8a6" font-family="Arial, sans-serif" font-size="20" text-anchor="middle">MÁGICOS</text>
</svg>
